<svg width="32" height="22" viewBox="0 0 32 22" fill="none" xmlns="http://www.w3.org/2000/svg">
<path d="M0 10.5C0 11.8807 1.186 13 2.64901 13H29.351C30.814 13 32 11.8807 32 10.5C32 9.11929 30.814 8 29.351 8H2.64901C1.186 8 0 9.11929 0 10.5Z" fill="#5661B3"/>
<path d="M0 2.5C0 3.88071 1.186 5 2.64901 5H29.351C30.814 5 32 3.88071 32 2.5C32 1.11929 30.814 0 29.351 0H2.64901C1.186 0 0 1.11929 0 2.5Z" fill="#5661B3"/>
<path d="M8 19.5C8 20.8807 9.23635 22 10.7615 22H29.2385C30.7636 22 32 20.8807 32 19.5V19.5C32 18.1193 30.7637 17 29.2385 17H10.7615C9.23635 17 8 18.1193 8 19.5V19.5Z" fill="#5661B3"/>
</svg>
